<svg xmlns="http://www.w3.org/2000/svg" version="1.1" xmlns:xlink="http://www.w3.org/1999/xlink" width="512" height="512" x="0" y="0" viewBox="0 0 682.667 682.667" style="enable-background:new 0 0 512 512" xml:space="preserve" class=""><g><defs><clipPath id="a" clipPathUnits="userSpaceOnUse"><path d="M0 512h512V0H0Z" fill="#000000" opacity="1" data-original="#000000" class=""></path></clipPath></defs><g clip-path="url(#a)" transform="matrix(1.33333 0 0 -1.33333 0 682.667)"><path d="M0 0v76.852h-237.336V0c0-53.898 35.936-99.396 85.153-113.859 10.257-3.014 17.315-12.406 17.315-23.096v-.013c0-10.69-7.058-20.082-17.315-23.095-49.217-14.463-85.153-59.961-85.153-113.86v-79.625H0v79.625c0 53.904-35.943 99.407-85.17 113.864-10.259 3.013-17.317 12.406-17.317 23.098 0 10.691 7.058 20.084 17.317 23.097C-35.943-99.407 0-53.904 0 0" style="fill-opacity:1;fill-rule:nonzero;stroke:none" transform="translate(374.668 393.015)" fill="#42aec1" data-original="#ddfaff" class="" opacity="1"></path><path d="M0 0c49.227 14.457 85.17 59.96 85.17 113.864v76.852H50.907v-76.852C50.907 59.96 33.046 14.457-16.181 0c-10.257-3.013-17.317-12.405-17.317-23.098 0-10.691 7.06-20.084 17.317-23.096 49.227-14.457 67.088-59.96 67.088-113.865v-79.626H85.17v79.626c0 53.905-35.943 99.408-85.17 113.865-10.259 3.012-17.317 12.405-17.317 23.096C-17.317-12.405-10.259-3.013 0 0" style="fill-opacity:1;fill-rule:nonzero;stroke:none" transform="translate(289.498 279.15)" fill="#24474e" data-original="#98efff" class="" opacity="1"></path><path d="M0 0h-228.828c-17.234 0-31.204 13.971-31.204 31.204v10.673H31.204V31.204C31.204 13.971 17.233 0 0 0" style="fill-opacity:1;fill-rule:nonzero;stroke:none" transform="translate(370.414 462.677)" fill="#b67a75" data-original="#bb706a" class="" opacity="1"></path><path d="M0 0v-10.673c0-17.233-13.971-31.204-31.204-31.204h65.988c17.234 0 31.204 13.971 31.204 31.204V0Z" style="fill-opacity:1;fill-rule:nonzero;stroke:none" transform="translate(335.63 504.554)" fill="#a55b5b" data-original="#a55b5b" class=""></path><path d="M0 0h228.828c17.234 0 31.204-13.971 31.204-31.204v-10.672H-31.204v10.672C-31.204-13.971-17.233 0 0 0" style="fill-opacity:1;fill-rule:nonzero;stroke:none" transform="translate(141.586 49.43)" fill="#b67a75" data-original="#bb706a" class="" opacity="1"></path><path d="M0 0h-56.714c17.234 0 31.205-13.97 31.205-31.204v-10.672h56.713v10.672C31.204-13.97 17.233 0 0 0" style="fill-opacity:1;fill-rule:nonzero;stroke:none" transform="translate(370.414 49.43)" fill="#a55b5b" data-original="#a55b5b" class=""></path><path d="M0 0c-49.101 0-88.905 39.804-88.905 88.903v-.391c8.374-3.592 21.717-8.057 37.968-7.614 46.255 1.261 67.045 40.945 100.82 35.868 9.858-1.482 36.973-10.102 39.022-28.254-.014.13 0 .261 0 .391C88.905 39.804 49.101 0 0 0" style="fill-opacity:1;fill-rule:nonzero;stroke:none" transform="translate(256 303.1)" fill="#000000" data-original="#ffc76d" class="" opacity="1"></path><path d="M0 0c27.17 0 49.196-22.026 49.196-49.196v.217h-98.392v-.217C-49.196-22.026-27.17 0 0 0" style="fill-opacity:1;fill-rule:nonzero;stroke:none" transform="translate(256 98.626)" fill="#000000" data-original="#ffc76d" class="" opacity="1"></path><path d="M0 0h-228.828c-17.234 0-31.204 13.971-31.204 31.204v10.673H31.204V31.204C31.204 13.971 17.233 0 0 0Z" style="stroke-width:15;stroke-linecap:round;stroke-linejoin:round;stroke-miterlimit:10;stroke-dasharray:none;stroke-opacity:1" transform="translate(370.414 462.677)" fill="none" stroke="#000000" stroke-width="15" stroke-linecap="round" stroke-linejoin="round" stroke-miterlimit="10" stroke-dasharray="none" stroke-opacity="" data-original="#000000" opacity="1" class=""></path><path d="M0 0h228.828c17.234 0 31.204-13.971 31.204-31.204v-10.672H-31.204v10.672C-31.204-13.971-17.233 0 0 0Z" style="stroke-width:15;stroke-linecap:round;stroke-linejoin:round;stroke-miterlimit:10;stroke-dasharray:none;stroke-opacity:1" transform="translate(141.586 49.43)" fill="none" stroke="#000000" stroke-width="15" stroke-linecap="round" stroke-linejoin="round" stroke-miterlimit="10" stroke-dasharray="none" stroke-opacity="" data-original="#000000" opacity="1" class=""></path><path d="M0 0v22.838c0 53.904-35.943 99.407-85.17 113.864-10.259 3.013-17.317 12.405-17.317 23.098 0 10.691 7.058 20.084 17.317 23.096C-35.943 197.354 0 242.856 0 296.761v69.662h-237.336v-69.662c0-53.899 35.936-99.397 85.153-113.86 10.257-3.013 17.315-12.405 17.315-23.095v-.013c0-10.69-7.058-20.082-17.315-23.096-49.217-14.463-85.153-59.961-85.153-113.859v-69.662H0v16.051" style="stroke-width:15;stroke-linecap:round;stroke-linejoin:round;stroke-miterlimit:10;stroke-dasharray:none;stroke-opacity:1" transform="translate(374.668 96.254)" fill="none" stroke="#000000" stroke-width="15" stroke-linecap="round" stroke-linejoin="round" stroke-miterlimit="10" stroke-dasharray="none" stroke-opacity="" data-original="#000000" opacity="1" class=""></path><path d="M0 0a88.9 88.9 0 0 0-3.646 25.28v-.391c8.374-3.592 21.716-8.057 37.968-7.614 46.255 1.261 67.045 40.945 100.82 35.868 9.858-1.482 36.973-10.102 39.022-28.254-.015.13 0 .261 0 .391 0-49.099-39.805-88.903-88.905-88.903-28.367 0-53.632 13.285-69.91 33.974" style="stroke-width:15;stroke-linecap:round;stroke-linejoin:round;stroke-miterlimit:10;stroke-dasharray:none;stroke-opacity:1" transform="translate(170.741 366.723)" fill="none" stroke="#000000" stroke-width="15" stroke-linecap="round" stroke-linejoin="round" stroke-miterlimit="10" stroke-dasharray="none" stroke-opacity="" data-original="#000000" opacity="1" class=""></path><path d="M0 0v0c27.17 0 49.196-22.026 49.196-49.196v.217h-98.392v-.217C-49.196-22.026-27.17 0 0 0Z" style="stroke-width:15;stroke-linecap:round;stroke-linejoin:round;stroke-miterlimit:10;stroke-dasharray:none;stroke-opacity:1" transform="translate(256 98.626)" fill="none" stroke="#000000" stroke-width="15" stroke-linecap="round" stroke-linejoin="round" stroke-miterlimit="10" stroke-dasharray="none" stroke-opacity="" data-original="#000000" opacity="1" class=""></path><path d="M0 0v-20.198" style="stroke-width:15;stroke-linecap:round;stroke-linejoin:round;stroke-miterlimit:10;stroke-dasharray:none;stroke-opacity:1" transform="translate(256 303.1)" fill="none" stroke="#000000" stroke-width="15" stroke-linecap="round" stroke-linejoin="round" stroke-miterlimit="10" stroke-dasharray="none" stroke-opacity="" data-original="#000000" opacity="1" class=""></path><path d="M0 0v-12.921" style="stroke-width:15;stroke-linecap:round;stroke-linejoin:round;stroke-miterlimit:10;stroke-dasharray:none;stroke-opacity:1" transform="translate(256 225.644)" fill="none" stroke="#000000" stroke-width="15" stroke-linecap="round" stroke-linejoin="round" stroke-miterlimit="10" stroke-dasharray="none" stroke-opacity="" data-original="#000000" opacity="1" class=""></path><path d="M0 0v-2.807" style="stroke-width:15;stroke-linecap:round;stroke-linejoin:round;stroke-miterlimit:10;stroke-dasharray:none;stroke-opacity:1" transform="translate(256 185.45)" fill="none" stroke="#000000" stroke-width="15" stroke-linecap="round" stroke-linejoin="round" stroke-miterlimit="10" stroke-dasharray="none" stroke-opacity="" data-original="#000000" opacity="1" class=""></path><path d="M0 0v-34.532" style="stroke-width:15;stroke-linecap:round;stroke-linejoin:round;stroke-miterlimit:10;stroke-dasharray:none;stroke-opacity:1" transform="translate(256 133.69)" fill="none" stroke="#000000" stroke-width="15" stroke-linecap="round" stroke-linejoin="round" stroke-miterlimit="10" stroke-dasharray="none" stroke-opacity="" data-original="#000000" opacity="1" class=""></path></g></g></svg>