<svg xmlns="http://www.w3.org/2000/svg" version="1.1" xmlns:xlink="http://www.w3.org/1999/xlink" width="512" height="512" x="0" y="0" viewBox="0 0 512 512" style="enable-background:new 0 0 512 512" xml:space="preserve" class=""><g><path fill="#00c1fb" d="M501 256c0 135.31-109.69 245-245 245S11 391.31 11 256 120.69 11 256 11s245 109.69 245 245z" opacity="1" data-original="#00c1fb"></path><path fill="#00d1fc" d="M456 256c0 110.457-89.543 200-200 200S56 366.457 56 256 145.543 56 256 56s200 89.543 200 200z" opacity="1" data-original="#00d1fc"></path><path fill="#ff4343" d="M86.723 394.894H20c-11.046 0-20-8.954-20-20V137.106c0-11.046 8.954-20 20-20h66.723c-11.046 0-20 8.954-20 20v237.787c0 11.046 8.955 20.001 20 20.001z" opacity="1" data-original="#ff4343" class=""></path><path fill="#ff5757" d="M512 137.106v237.787c0 11.046-8.954 20-20 20H82.532c-11.046 0-20-8.954-20-20V137.106c0-11.046 8.954-20 20-20H492c11.046 0 20 8.955 20 20z" opacity="1" data-original="#ff5757" class=""></path><path fill="#ff4343" d="M419.128 283.909h-27.475l42.022-64.493a19.106 19.106 0 0 0-16.007-29.536h-59.339c-8.444 0-15.608 5.478-18.134 13.073-2.526-7.596-9.69-13.073-18.134-13.073-10.552 0-19.106 8.554-19.106 19.106 0-10.552-8.554-19.106-19.106-19.106s-19.106 8.554-19.106 19.106v64.634c0 2.049 0 5.146-7.209 8.777-2.021 1.018-4.273 1.513-6.884 1.513h-.028c-2.747-.004-4.994-.624-7.072-1.952-5.932-3.79-5.932-6.067-5.932-8.27v-64.703c0-10.552-8.554-19.106-19.106-19.106s-19.106 8.554-19.106 19.106v18.232c-10.72-22.08-33.372-37.338-59.521-37.338-36.459 0-66.121 29.662-66.121 66.121s29.661 66.121 66.121 66.121a65.71 65.71 0 0 0 31.724-8.12l2.144 2.144c3.731 3.731 8.62 5.596 13.51 5.596s9.779-1.865 13.51-5.596c5.278-5.278 6.822-12.875 4.633-19.511 3.937 6.705 9.803 12.562 17.572 17.524 8.248 5.27 17.531 7.948 27.592 7.962h.08c8.6 0 16.699-1.883 24.072-5.596 18.207-9.169 28.234-24.406 28.234-42.905v29.395c0 10.552 8.554 19.106 19.106 19.106 7.544 0 14.066-4.372 17.172-10.721A19.105 19.105 0 0 0 356.4 322.12h62.728c10.552 0 19.106-8.554 19.106-19.106 0-10.551-8.554-19.105-19.106-19.105zm-251.341-27.252c-7.424-4.964-17.558-4.169-24.114 2.387-6.76 6.76-7.395 17.326-1.905 24.802a27.92 27.92 0 0 1-1.882.063c-15.389 0-27.909-12.52-27.909-27.909s12.52-27.909 27.909-27.909 27.909 12.52 27.909 27.909c0 .22-.003.439-.008.657zm173.381 34.739v-74.004c3.11 6.337 9.626 10.699 17.161 10.699h24.086z" opacity="1" data-original="#ff4343" class=""></path><path fill="#ffe7bf" d="M491.436 242.234V342c0 15.164-12.336 27.5-27.5 27.5H48.064c-15.164 0-27.5-12.336-27.5-27.5v-99.766a7.5 7.5 0 0 1 15 0V342c0 6.893 5.607 12.5 12.5 12.5h415.872c6.893 0 12.5-5.607 12.5-12.5v-99.766a7.5 7.5 0 0 1 15 0z" opacity="1" data-original="#ffe7bf"></path><path fill="#ffe7bf" d="M192.34 297.105c2.99 2.99 3.155 8.048.093 10.964a7.476 7.476 0 0 1-5.169 2.066 7.474 7.474 0 0 1-5.303-2.197l-8.791-8.791c-10.227 7.907-23.33 12.266-37.447 11.212-27.399-2.045-49.195-24.657-50.306-52.11a55.136 55.136 0 0 1 .195-7.393c.359-3.817 3.626-6.704 7.46-6.704h.005c4.376 0 7.885 3.735 7.472 8.091a39.857 39.857 0 0 0-.176 3.456c-.164 21.832 17.683 39.816 39.515 39.815 8.38 0 16.159-2.623 22.56-7.09l-10.345-10.345c-2.904-2.904-3.199-7.673-.384-10.663a7.5 7.5 0 0 1 10.768-.166l10.425 10.425a39.285 39.285 0 0 0 6.489-21.676c0-1.224-.056-2.435-.165-3.631-.404-4.408 3.032-8.217 7.458-8.217a7.507 7.507 0 0 1 7.477 6.811c.153 1.659.231 3.339.231 5.037a54.227 54.227 0 0 1-10.727 32.438zm91.511-52.953h-.002a7.498 7.498 0 0 0-7.499 7.499v21.968c0 5.278-1.409 13.005-13.594 19.143-3.627 1.827-7.7 2.752-12.107 2.752h-.042c-4.916-.007-9.392-1.277-13.304-3.777-7.913-5.055-11.289-10.453-11.289-18.049v-22.037a7.498 7.498 0 0 0-7.499-7.499h-.002a7.498 7.498 0 0 0-7.499 7.499v22.037c0 12.821 5.958 22.86 18.213 30.689 6.356 4.062 13.543 6.126 21.36 6.137h.063c6.771 0 13.114-1.465 18.854-4.356 18.057-9.094 21.847-22.714 21.847-32.539v-21.968a7.5 7.5 0 0 0-7.5-7.499zm38.212 0h-.002a7.498 7.498 0 0 0-7.499 7.499v51.363a7.5 7.5 0 0 0 7.731 7.497c4.105-.123 7.269-3.704 7.269-7.811v-51.049a7.5 7.5 0 0 0-7.499-7.499zm104.562 58.632c-.123-4.105-3.704-7.269-7.811-7.269h-48.575l25.913-39.769c3.25-4.988-.329-11.593-6.283-11.593h-.002a7.5 7.5 0 0 0-6.283 3.405l-33.348 51.18c-1.201 1.844-1.662 4.121-1.077 6.242a7.506 7.506 0 0 0 7.241 5.536h62.728a7.503 7.503 0 0 0 7.497-7.732z" opacity="1" data-original="#ffe7bf"></path><path fill="#ffffff" d="M491.436 170v99.042a7.5 7.5 0 0 1-15 0V170c0-6.893-5.607-12.5-12.5-12.5H48.064c-6.893 0-12.5 5.607-12.5 12.5v99.042a7.5 7.5 0 0 1-15 0V170c0-15.164 12.336-27.5 27.5-27.5h415.872c15.164 0 27.5 12.336 27.5 27.5zm-351.55 31.485c-30.06 0-54.515 24.455-54.515 54.515a7.5 7.5 0 0 0 15 0c0-21.789 17.726-39.515 39.515-39.515s39.515 17.726 39.515 39.515a7.5 7.5 0 0 0 15 0c0-30.06-24.455-54.515-54.515-54.515zm78.627 0a7.5 7.5 0 0 0-7.5 7.5v51.189a7.5 7.5 0 0 0 15 0v-51.189a7.5 7.5 0 0 0-7.5-7.5zm199.155 0h-59.339a7.5 7.5 0 0 0 0 15h45.501l-24.751 37.987a7.5 7.5 0 0 0 12.567 8.188l32.306-49.581a7.499 7.499 0 0 0-6.284-11.594zm-95.606 0a7.5 7.5 0 0 0-7.5 7.5v50.765a7.5 7.5 0 0 0 15 0v-50.765a7.5 7.5 0 0 0-7.5-7.5zm-38.212 0a7.5 7.5 0 0 0-7.5 7.5v51.121a7.5 7.5 0 0 0 15 0v-51.121a7.5 7.5 0 0 0-7.5-7.5z" opacity="1" data-original="#ffffff"></path><path fill="#9ae7fd" d="M263.5 45v39.128a7.5 7.5 0 0 1-15 0V45a7.5 7.5 0 0 1 15 0zm-60.414 19.101a7.5 7.5 0 0 0 0 10.607l20.446 20.446a7.5 7.5 0 0 0 10.607-10.607l-20.446-20.446a7.5 7.5 0 0 0-10.607 0zm74.775 20.446 20.446-20.446a7.5 7.5 0 0 1 10.607 10.607l-20.446 20.446a7.5 7.5 0 0 1-10.607-10.607zM248.5 467v-39.128a7.5 7.5 0 0 1 15 0V467a7.5 7.5 0 0 1-15 0zm60.414-19.101a7.5 7.5 0 0 0 0-10.607l-20.446-20.446a7.5 7.5 0 0 0-10.607 10.607l20.446 20.446a7.5 7.5 0 0 0 10.607 0zm-74.775-20.446-20.446 20.446a7.5 7.5 0 0 1-10.607-10.607l20.446-20.446a7.5 7.5 0 0 1 10.607 10.607z" opacity="1" data-original="#9ae7fd"></path></g></svg>